<svg width="61" height="61" viewBox="0 0 61 61" fill="none" xmlns="http://www.w3.org/2000/svg">
<path d="M40.1292 13.8145C40.1292 15.1989 40.5397 16.5523 41.3089 17.7034C42.078 18.8546 43.1713 19.7518 44.4504 20.2816C45.7294 20.8114 47.1369 20.95 48.4948 20.68C49.8526 20.4099 51.0999 19.7432 52.0789 18.7642C53.0579 17.7852 53.7246 16.538 53.9946 15.1801C54.2647 13.8222 54.1261 12.4148 53.5963 11.1357C53.0665 9.85659 52.1693 8.76334 51.0181 7.99417C49.867 7.225 48.5136 6.81445 47.1292 6.81445C45.2733 6.81657 43.494 7.55475 42.1817 8.86704C40.8694 10.1793 40.1313 11.9586 40.1292 13.8145ZM47.1292 8.81445C48.1181 8.81445 49.0848 9.1077 49.907 9.65711C50.7292 10.2065 51.3701 10.9874 51.7485 11.901C52.127 12.8147 52.226 13.82 52.0331 14.7899C51.8402 15.7598 51.3639 16.6507 50.6647 17.35C49.9654 18.0492 49.0745 18.5255 48.1046 18.7184C47.1347 18.9113 46.1294 18.8123 45.2157 18.4339C44.3021 18.0554 43.5212 17.4145 42.9718 16.5923C42.4224 15.7701 42.1292 14.8034 42.1292 13.8145C42.1307 12.4889 42.658 11.218 43.5954 10.2807C44.5327 9.34334 45.8036 8.81604 47.1292 8.81445Z" fill="#F36C21"/>
<path d="M48.1292 1.81445C48.1292 1.26217 47.6814 0.814453 47.1292 0.814453C46.5769 0.814453 46.1292 1.26217 46.1292 1.81445V3.81445C46.1292 4.36674 46.5769 4.81445 47.1292 4.81445C47.6814 4.81445 48.1292 4.36674 48.1292 3.81445V1.81445Z" fill="#F36C21"/>
<path d="M13.1292 1.81445C13.1292 1.26217 12.6814 0.814453 12.1292 0.814453C11.5769 0.814453 11.1292 1.26217 11.1292 1.81445V3.81445C11.1292 4.36674 11.5769 4.81445 12.1292 4.81445C12.6814 4.81445 13.1292 4.36674 13.1292 3.81445V1.81445Z" fill="#F36C21"/>
<path d="M19.5442 3.81444L18.1292 5.22944C17.947 5.41805 17.8462 5.67065 17.8485 5.93284C17.8508 6.19504 17.9559 6.44585 18.1413 6.63126C18.3268 6.81667 18.5776 6.92184 18.8398 6.92412C19.102 6.9264 19.3546 6.8256 19.5432 6.64344L20.9582 5.22844C21.0537 5.1362 21.1299 5.02585 21.1823 4.90385C21.2347 4.78184 21.2623 4.65062 21.2634 4.51784C21.2646 4.38507 21.2393 4.25339 21.189 4.13049C21.1387 4.00759 21.0644 3.89594 20.9706 3.80205C20.8767 3.70816 20.765 3.6339 20.6421 3.58362C20.5192 3.53334 20.3875 3.50804 20.2548 3.50919C20.122 3.51035 19.9908 3.53793 19.8688 3.59034C19.7468 3.64275 19.6364 3.71893 19.5442 3.81444Z" fill="#F36C21"/>
<path d="M4.54316 3.81446C4.35456 3.63231 4.10196 3.53151 3.83976 3.53379C3.57756 3.53607 3.32675 3.64124 3.14134 3.82665C2.95593 4.01205 2.85077 4.26287 2.84849 4.52506C2.84621 4.78726 2.947 5.03986 3.12916 5.22846L4.54416 6.64346C4.73276 6.82562 4.98537 6.92642 5.24756 6.92414C5.50976 6.92186 5.76057 6.81669 5.94598 6.63128C6.13139 6.44587 6.23656 6.19506 6.23884 5.93287C6.24111 5.67067 6.14032 5.41807 5.95816 5.22946L4.54316 3.81446Z" fill="#F36C21"/>
<path d="M23.1292 11.8145H21.1292C20.5769 11.8145 20.1292 12.2622 20.1292 12.8145C20.1292 13.3667 20.5769 13.8145 21.1292 13.8145H23.1292C23.6814 13.8145 24.1292 13.3667 24.1292 12.8145C24.1292 12.2622 23.6814 11.8145 23.1292 11.8145Z" fill="#F36C21"/>
<path d="M3.12915 11.8145H1.12915C0.576866 11.8145 0.12915 12.2622 0.12915 12.8145C0.12915 13.3667 0.576866 13.8145 1.12915 13.8145H3.12915C3.68144 13.8145 4.12915 13.3667 4.12915 12.8145C4.12915 12.2622 3.68144 11.8145 3.12915 11.8145Z" fill="#F36C21"/>
<path d="M59.1292 12.8145H57.1292C56.5769 12.8145 56.1292 13.2622 56.1292 13.8145C56.1292 14.3667 56.5769 14.8145 57.1292 14.8145H59.1292C59.6814 14.8145 60.1292 14.3667 60.1292 13.8145C60.1292 13.2622 59.6814 12.8145 59.1292 12.8145Z" fill="#F36C21"/>
<path d="M37.1292 12.8145H35.1292C34.5769 12.8145 34.1292 13.2622 34.1292 13.8145C34.1292 14.3667 34.5769 14.8145 35.1292 14.8145H37.1292C37.6814 14.8145 38.1292 14.3667 38.1292 13.8145C38.1292 13.2622 37.6814 12.8145 37.1292 12.8145Z" fill="#F36C21"/>
<path d="M56.3211 4.62244C56.1336 4.43497 55.8793 4.32965 55.6141 4.32965C55.349 4.32965 55.0947 4.43497 54.9071 4.62244L53.4931 6.03644C53.311 6.22504 53.2102 6.47764 53.2125 6.73984C53.2147 7.00204 53.3199 7.25285 53.5053 7.43826C53.6907 7.62366 53.9415 7.72883 54.2037 7.73111C54.4659 7.73339 54.7185 7.6326 54.9071 7.45044L56.3211 6.03644C56.5086 5.84891 56.6139 5.5946 56.6139 5.32944C56.6139 5.06427 56.5086 4.80997 56.3211 4.62244Z" fill="#F36C21"/>
<path d="M39.3511 20.1785L37.9371 21.5925C37.755 21.7811 37.6542 22.0337 37.6565 22.2959C37.6587 22.5581 37.7639 22.8089 37.9493 22.9943C38.1347 23.1797 38.3855 23.2849 38.6477 23.2871C38.9099 23.2894 39.1625 23.1886 39.3511 23.0065L40.7651 21.5925C40.8607 21.5002 40.9368 21.3899 40.9892 21.2679C41.0417 21.1459 41.0692 21.0146 41.0704 20.8819C41.0715 20.7491 41.0462 20.6174 40.996 20.4945C40.9457 20.3716 40.8714 20.26 40.7775 20.1661C40.6836 20.0722 40.572 19.9979 40.4491 19.9476C40.3262 19.8974 40.1945 19.8721 40.0617 19.8732C39.929 19.8744 39.7977 19.9019 39.6757 19.9544C39.5537 20.0068 39.4434 20.0829 39.3511 20.1785Z" fill="#F36C21"/>
<path d="M53.4932 20.1785C53.3057 20.366 53.2004 20.6203 53.2004 20.8855C53.2004 21.1506 53.3057 21.4049 53.4932 21.5925L54.9072 23.0065C55.0958 23.1886 55.3484 23.2894 55.6106 23.2871C55.8728 23.2849 56.1236 23.1797 56.309 22.9943C56.4944 22.8089 56.5996 22.5581 56.6018 22.2959C56.6041 22.0337 56.5033 21.7811 56.3212 21.5925L54.9072 20.1785C54.7196 19.991 54.4653 19.8857 54.2002 19.8857C53.935 19.8857 53.6807 19.991 53.4932 20.1785Z" fill="#F36C21"/>
<path d="M39.3511 4.62245C39.1625 4.44029 38.9099 4.3395 38.6477 4.34177C38.3855 4.34405 38.1347 4.44922 37.9493 4.63463C37.7639 4.82004 37.6587 5.07085 37.6565 5.33305C37.6542 5.59524 37.755 5.84785 37.9371 6.03645L39.3511 7.45045C39.4434 7.54596 39.5537 7.62214 39.6757 7.67455C39.7977 7.72696 39.929 7.75454 40.0617 7.7557C40.1945 7.75685 40.3262 7.73155 40.4491 7.68127C40.572 7.63099 40.6836 7.55674 40.7775 7.46284C40.8714 7.36895 40.9457 7.2573 40.996 7.1344C41.0462 7.01151 41.0715 6.87983 41.0704 6.74705C41.0692 6.61427 41.0417 6.48305 40.9892 6.36104C40.9368 6.23904 40.8607 6.12869 40.7651 6.03645L39.3511 4.62245Z" fill="#F36C21"/>
<path d="M27.7381 34.8145H19.1292C18.9739 34.8145 18.8208 34.8506 18.6819 34.92C18.5431 34.9895 18.4223 35.0903 18.3292 35.2145L6.32915 51.2145C6.21772 51.363 6.14987 51.5397 6.13319 51.7246C6.11651 51.9096 6.15167 52.0956 6.23472 52.2617C6.31778 52.4278 6.44544 52.5675 6.60342 52.6651C6.7614 52.7627 6.94344 52.8145 7.12915 52.8145H29.1292V58.8145H27.1292C26.8639 58.8145 26.6096 58.9198 26.422 59.1073C26.2345 59.2949 26.1292 59.5492 26.1292 59.8145C26.1292 60.0797 26.2345 60.334 26.422 60.5216C26.6096 60.7091 26.8639 60.8145 27.1292 60.8145H33.1292C33.3944 60.8145 33.6487 60.7091 33.8363 60.5216C34.0238 60.334 34.1292 60.0797 34.1292 59.8145C34.1292 59.5492 34.0238 59.2949 33.8363 59.1073C33.6487 58.9198 33.3944 58.8145 33.1292 58.8145H31.1292V52.8145H53.1292C53.3149 52.8145 53.4969 52.7627 53.6549 52.6651C53.8129 52.5675 53.9405 52.4278 54.0236 52.2617C54.1066 52.0956 54.1418 51.9096 54.1251 51.7246C54.1084 51.5397 54.0406 51.363 53.9291 51.2145L41.9291 35.2145C41.836 35.0903 41.7152 34.9895 41.5764 34.92C41.4375 34.8506 41.2844 34.8145 41.1292 34.8145H27.7381ZM28.5882 36.8145H31.6702L31.9962 38.8145H28.2621L28.5882 36.8145ZM19.6292 36.8145H22.4022L21.5541 38.8145H18.1292L19.6292 36.8145ZM16.6292 40.8145H20.7062L19.8582 42.8145H15.1292L16.6292 40.8145ZM16.4671 50.8145H9.12915L10.6292 48.8145H17.3141L16.4671 50.8145ZM12.1292 46.8145L13.6292 44.8145H19.0102L18.1622 46.8145H12.1292ZM24.2792 50.8145H18.6392L19.4872 48.8145H24.6052L24.2792 50.8145ZM24.9312 46.8145H20.3312L21.1791 44.8145H25.2532L24.9312 46.8145ZM25.5832 42.8145H22.0292L22.8771 40.8145H25.9092L25.5832 42.8145ZM23.7292 38.8145L24.5772 36.8145H26.5652L26.2392 38.8145H23.7292ZM35.0042 44.8145H39.0782L39.9262 46.8145H35.3292L35.0042 44.8145ZM35.9822 50.8145L35.6562 48.8145H40.7742L41.6222 50.8145H35.9822ZM51.1292 50.8145H43.7911L42.9441 48.8145H49.6292L51.1292 50.8145ZM48.1292 46.8145H42.0961L41.2481 44.8145H46.6292L48.1292 46.8145ZM45.1292 42.8145H40.4002L39.5522 40.8145H43.6292L45.1292 42.8145ZM40.6292 36.8145L42.1292 38.8145H38.7042L37.8562 36.8145H40.6292ZM38.2291 42.8145H34.6752L34.3482 40.8145H37.3801L38.2291 42.8145ZM35.6852 36.8145L36.5331 38.8145H34.0232L33.6972 36.8145H35.6852ZM33.9532 50.8145H26.3052L26.6312 48.8145H33.6311L33.9532 50.8145ZM33.3012 46.8145H26.9571L27.2842 44.8145H32.9742L33.3012 46.8145ZM27.6102 42.8145L27.9361 40.8145H32.3222L32.6482 42.8145H27.6102Z" fill="#F36C21"/>
<path d="M6.12916 12.8145C6.12805 13.6554 6.3058 14.487 6.65061 15.2541C6.99543 16.0211 7.49942 16.7061 8.12916 17.2635V17.8145C8.12901 17.9696 8.16496 18.1226 8.23416 18.2615L9.12916 20.0505V22.8145C9.12916 23.3449 9.33987 23.8536 9.71494 24.2287C10.09 24.6037 10.5987 24.8145 11.1292 24.8145H13.1292C13.6596 24.8145 14.1683 24.6037 14.5434 24.2287C14.9184 23.8536 15.1292 23.3449 15.1292 22.8145V20.0505L16.0242 18.2615C16.0934 18.1226 16.1293 17.9696 16.1292 17.8145V17.2635C16.7589 16.7061 17.2629 16.0211 17.6077 15.2541C17.9525 14.487 18.1303 13.6554 18.1292 12.8145C18.1292 11.2232 17.497 9.69703 16.3718 8.57181C15.2466 7.44659 13.7205 6.81445 12.1292 6.81445C10.5379 6.81445 9.01173 7.44659 7.88652 8.57181C6.7613 9.69703 6.12916 11.2232 6.12916 12.8145ZM11.1292 22.8145V20.8145H13.1292V22.8145H11.1292ZM12.1292 8.81445C13.19 8.81445 14.2074 9.23588 14.9576 9.98603C15.7077 10.7362 16.1292 11.7536 16.1292 12.8145C16.1289 13.4326 15.984 14.042 15.7062 14.5942C15.4284 15.1463 15.0253 15.6258 14.5292 15.9945C14.405 16.0876 14.3042 16.2084 14.2347 16.3472C14.1653 16.4861 14.1292 16.6392 14.1292 16.7945V17.5805L13.5112 18.8145H10.7472L10.1292 17.5785V16.7925C10.1292 16.6372 10.093 16.4841 10.0236 16.3452C9.95416 16.2064 9.85335 16.0856 9.72916 15.9925C9.23327 15.624 8.83036 15.1448 8.55256 14.5931C8.27476 14.0413 8.12977 13.4322 8.12916 12.8145C8.12916 11.7536 8.55058 10.7362 9.30073 9.98603C10.0509 9.23588 11.0683 8.81445 12.1292 8.81445Z" fill="#F36C21"/>
<path d="M47.1292 24.8145C47.6814 24.8145 48.1292 24.3667 48.1292 23.8145C48.1292 23.2622 47.6814 22.8145 47.1292 22.8145C46.5769 22.8145 46.1292 23.2622 46.1292 23.8145C46.1292 24.3667 46.5769 24.8145 47.1292 24.8145Z" fill="#F36C21"/>
<path d="M47.1292 28.8145C47.6814 28.8145 48.1292 28.3667 48.1292 27.8145C48.1292 27.2622 47.6814 26.8145 47.1292 26.8145C46.5769 26.8145 46.1292 27.2622 46.1292 27.8145C46.1292 28.3667 46.5769 28.8145 47.1292 28.8145Z" fill="#F36C21"/>
<path d="M47.1292 32.8145C47.6814 32.8145 48.1292 32.3667 48.1292 31.8145C48.1292 31.2622 47.6814 30.8145 47.1292 30.8145C46.5769 30.8145 46.1292 31.2622 46.1292 31.8145C46.1292 32.3667 46.5769 32.8145 47.1292 32.8145Z" fill="#F36C21"/>
<path d="M47.1292 36.8145C47.6814 36.8145 48.1292 36.3667 48.1292 35.8145C48.1292 35.2622 47.6814 34.8145 47.1292 34.8145C46.5769 34.8145 46.1292 35.2622 46.1292 35.8145C46.1292 36.3667 46.5769 36.8145 47.1292 36.8145Z" fill="#F36C21"/>
<path d="M12.1292 28.8145C12.6814 28.8145 13.1292 28.3667 13.1292 27.8145C13.1292 27.2622 12.6814 26.8145 12.1292 26.8145C11.5769 26.8145 11.1292 27.2622 11.1292 27.8145C11.1292 28.3667 11.5769 28.8145 12.1292 28.8145Z" fill="#F36C21"/>
<path d="M12.1292 32.8145C12.6814 32.8145 13.1292 32.3667 13.1292 31.8145C13.1292 31.2622 12.6814 30.8145 12.1292 30.8145C11.5769 30.8145 11.1292 31.2622 11.1292 31.8145C11.1292 32.3667 11.5769 32.8145 12.1292 32.8145Z" fill="#F36C21"/>
<path d="M12.1292 36.8145C12.6814 36.8145 13.1292 36.3667 13.1292 35.8145C13.1292 35.2622 12.6814 34.8145 12.1292 34.8145C11.5769 34.8145 11.1292 35.2622 11.1292 35.8145C11.1292 36.3667 11.5769 36.8145 12.1292 36.8145Z" fill="#F36C21"/>
</svg>
