<svg width="29" height="48" viewBox="0 0 29 48" fill="none" xmlns="http://www.w3.org/2000/svg">
<path d="M3.57167 47.1488C2.66246 47.1557 1.78165 46.8263 1.09206 46.2216C0.758177 45.9337 0.488243 45.5766 0.300073 45.174C0.111903 44.7714 0.00977348 44.3325 0.00066809 43.8865C-0.0084373 43.4406 0.0756225 42.9978 0.247195 42.5876C0.418768 42.1773 0.673864 41.8089 0.995708 41.507L19.5511 23.5721L0.995708 5.63711C0.673864 5.33525 0.418768 4.96686 0.247195 4.5566C0.0756225 4.14633 -0.0084373 3.70358 0.00066809 3.25762C0.00977348 2.81167 0.111903 2.37278 0.300073 1.97016C0.488243 1.56755 0.758177 1.21042 1.09206 0.922496C1.80384 0.311441 2.70837 -0.0160085 3.63842 0.000602314C4.56847 0.0172131 5.46102 0.376801 6.1514 1.0129L27.0978 21.258C27.4098 21.5523 27.6588 21.9093 27.8291 22.3065C27.9994 22.7037 28.0874 23.1326 28.0874 23.5661C28.0874 23.9997 27.9994 24.4287 27.8291 24.8259C27.6588 25.2231 27.4098 25.5801 27.0978 25.8744L6.1514 46.1155C5.45274 46.7841 4.52951 47.1539 3.57167 47.1488Z" fill="#F36C21"/>
</svg>
